<svg xmlns="http://www.w3.org/2000/svg" width="46.552" height="46.552" viewBox="0 0 46.552 46.552"><path d="M106,286h5.455v16.457H106Zm0,0" transform="translate(-96.362 -259.996)" fill="#ff4b00"/><path d="M346,286h5.455v16.457H346Zm0,0" transform="translate(-314.541 -259.996)" fill="#d03b00"/><path d="M166,286h16.366v16.457H166Zm0,0" transform="translate(-150.907 -259.996)" fill="#ffe470"/><path d="M256,286h8.183v16.457H256Zm0,0" transform="translate(-232.724 -259.996)" fill="#fdbf00"/><path d="M145.549,62.728V81.912H121V62.728L133.274,60Zm0,0" transform="translate(-109.998 -54.545)" fill="#ffe470"/><path d="M268.274,62.728V81.912H256V60Zm0,0" transform="translate(-232.724 -54.545)" fill="#fdbf00"/><path d="M91,169.037v5.6l2.046,2.728,3.41-2.728V165Zm0,0" transform="translate(-82.726 -149.998)" fill="#ff4b00"/><path d="M361,165v9.638l2.728,2.728,2.728-2.728v-5.6Zm0,0" transform="translate(-328.177 -149.998)" fill="#d03b00"/><g transform="translate(24.64 26.004)"><path d="M453.728,286v15.093l-1.364,2.728L451,301.093V286Zm0,0" transform="translate(-434.634 -286)" fill="#5a5a5a"/><path d="M393.728,286v15.093l-1.364,2.728L391,301.093V286Zm0,0" transform="translate(-380.089 -286)" fill="#5a5a5a"/><path d="M333.728,286v15.093l-1.364,2.728L331,301.093V286Zm0,0" transform="translate(-325.545 -286)" fill="#5a5a5a"/><path d="M273.728,286v15.093l-1.364,2.728L271,301.093V286Zm0,0" transform="translate(-271 -286)" fill="#5a5a5a"/></g><path d="M213.728,286v15.093l-1.364,2.728L211,301.093V286Zm0,0" transform="translate(-191.816 -259.996)" fill="#6e6e6e"/><path d="M153.728,286v15.093l-1.364,2.728L151,301.093V286Zm0,0" transform="translate(-137.271 -259.996)" fill="#6e6e6e"/><path d="M93.728,286v15.093l-1.364,2.728L91,301.093V286Zm0,0" transform="translate(-82.726 -259.996)" fill="#6e6e6e"/><path d="M33.728,286v15.093l-1.364,2.728L31,301.093V286Zm0,0" transform="translate(-28.181 -259.996)" fill="#6e6e6e"/><path d="M121,15v4.037a17.171,17.171,0,0,1-5.455-1.309,16.5,16.5,0,0,1-4.064-2.373A17.754,17.754,0,0,1,106,8.21a17.762,17.762,0,0,1-6.955,8.183,16.658,16.658,0,0,1-2.591,1.336A16.632,16.632,0,0,1,91,19.039V15A15,15,0,0,1,104.638.082a11.426,11.426,0,0,1,2.728,0A15,15,0,0,1,121,15Zm0,0" transform="translate(-82.726)" fill="#ff7816"/><path d="M256,8.21V0a11.149,11.149,0,0,1,1.364.082A15,15,0,0,1,271,15v4.037a17.171,17.171,0,0,1-5.455-1.309,16.5,16.5,0,0,1-4.064-2.373A17.754,17.754,0,0,1,256,8.21Zm0,0" transform="translate(-232.724 0)" fill="#ff4b00"/><path d="M0,271H46.552v2.728H0Zm0,0" transform="translate(0 -246.36)" fill="#6e6e6e"/><path d="M256,271h23.276v2.728H256Zm0,0" transform="translate(-232.724 -246.36)" fill="#5a5a5a"/><path d="M0,452H46.552v5.455H0Zm0,0" transform="translate(0 -410.903)" fill="#ececf1"/><path d="M256,452h23.276v5.455H256Zm0,0" transform="translate(-232.724 -410.903)" fill="#d3d3d8"/></svg>